HIERARCHY
ROOT Hips
{
    OFFSET 0.000000 0.000000 0.000000
    CHANNELS 6 Xposition Yposition Zposition Zrotation Xrotation Yrotation
    JOINT Spine
    {
        OFFSET -0.000000 8.267054 0.000000
        CHANNELS 3 Zrotation Xrotation Yrotation
        JOINT Spine1
        {
            OFFSET -0.000000 23.684998 0.000000
            CHANNELS 3 Zrotation Xrotation Yrotation
            JOINT Neck
            {
                OFFSET -0.000000 23.587730 2.144339
                CHANNELS 3 Zrotation Xrotation Yrotation
                JOINT Head
                {
                    OFFSET -0.000000 14.114483 -2.016355
                    CHANNELS 3 Zrotation Xrotation Yrotation
                    End Site
                    {
                        OFFSET -0.000000 25.204432 0.000000
                    }
                }
            }
            JOINT LeftShoulder
            {
                OFFSET 4.070090 22.062094 -0.247321
                CHANNELS 3 Zrotation Xrotation Yrotation
                JOINT LeftArm
                {
                    OFFSET 10.395479 0.000000 0.000000
                    CHANNELS 3 Zrotation Xrotation Yrotation
                    JOINT LeftForeArm
                    {
                        OFFSET 37.713577 0.000000 0.000000
                        CHANNELS 3 Zrotation Xrotation Yrotation
                        JOINT LeftHand
                        {
                            OFFSET 20.284107 0.000000 0.000000
                            CHANNELS 3 Zrotation Xrotation Yrotation
                            End Site
                            {
                                OFFSET 15.122660 0.000000 0.000000
                            }
                        }
                    }
                }
            }
            JOINT RightShoulder
            {
                OFFSET -3.979272 22.062094 -0.247321
                CHANNELS 3 Zrotation Xrotation Yrotation
                JOINT RightArm
                {
                    OFFSET -10.395479 0.000000 0.000000
                    CHANNELS 3 Zrotation Xrotation Yrotation
                    JOINT RightForeArm
                    {
                        OFFSET -37.713577 0.000000 0.000000
                        CHANNELS 3 Zrotation Xrotation Yrotation
                        JOINT RightHand
                        {
                            OFFSET -20.284107 0.000000 0.000000
                            CHANNELS 3 Zrotation Xrotation Yrotation
                            End Site
                            {
                                OFFSET -15.122660 0.000000 0.000000
                            }
                        }
                    }
                }
            }
        }
    }
    JOINT LeftUpLeg
    {
        OFFSET 10.081773 0.000000 0.000000
        CHANNELS 3 Zrotation Xrotation Yrotation
        JOINT LeftLeg
        {
            OFFSET -0.000000 -36.382099 0.000000
            CHANNELS 3 Zrotation Xrotation Yrotation
            JOINT LeftFoot
            {
                OFFSET -0.000000 -49.182560 0.000000
                CHANNELS 3 Zrotation Xrotation Yrotation
                JOINT LeftToeBase
                {
                    OFFSET -0.000000 -6.553152 15.122660
                    CHANNELS 3 Zrotation Xrotation Yrotation
                    End Site
                    {
                        OFFSET -0.000000 0.000000 4.032709
                    }
                }
            }
        }
    }
    JOINT RightUpLeg
    {
        OFFSET -10.081773 0.000000 0.000000
        CHANNELS 3 Zrotation Xrotation Yrotation
        JOINT RightLeg
        {
            OFFSET -0.000000 -36.382099 0.000000
            CHANNELS 3 Zrotation Xrotation Yrotation
            JOINT RightFoot
            {
                OFFSET -0.000000 -49.182560 0.000000
                CHANNELS 3 Zrotation Xrotation Yrotation
                JOINT RightToeBase
                {
                    OFFSET -0.000000 -6.553152 15.122660
                    CHANNELS 3 Zrotation Xrotation Yrotation
                    End Site
                    {
                        OFFSET -0.000000 0.000000 4.032709
                    }
                }
            }
        }
    }
}
MOTION
Frames:    9
Frame Time:    0.008333
67.780930    91.972153    -52.234806    -3.828038    4.569709    -169.910812    -1.395266    -4.163749    -0.333119    -3.323330    4.595996    -0.149092    8.129800    27.494001    3.922507    -9.587398    -2.163624    3.431424    9.270995    8.136556    -6.322591    -57.339893    64.442497    -23.040564    2.417701    -18.976919    -23.679249    -4.945920    -18.710243    5.204346    -4.123444    8.340162    -1.352089    66.324165    53.278076    15.328406    2.011981    -17.389570    26.885778    5.770479    -18.016083    -3.497665    -7.624853    4.656810    -7.336599    0.877246    22.578457    -4.494434    1.109538    -13.395770    -3.659397    0.000000    0.000000    0.000000    -8.865233    -21.657440    2.165825    0.599676    21.409393    2.642041    12.941547    8.264221    5.319241    0.000000    0.000000    0.000000    
67.913452    91.975143    -52.756481    -3.822295    4.535604    -169.475952    -1.364384    -4.264719    -0.329888    -3.333664    4.609850    -0.144988    7.965435    27.347715    3.831056    -9.330120    -1.956007    3.364283    9.245424    8.158071    -6.305108    -57.363899    64.436096    -23.034140    2.401267    -18.874338    -23.628767    -4.984114    -18.610994    5.144279    -4.119726    8.352940    -1.372737    66.278503    53.288841    15.390738    2.037781    -17.288305    26.701235    5.775742    -17.914850    -3.434460    -7.432030    4.692588    -7.376730    0.947277    22.970209    -4.852330    1.047804    -13.290962    -3.703570    0.000000    0.000000    0.000000    -8.739199    -21.443966    2.221272    0.455898    21.377188    2.804649    12.868847    8.119100    5.523405    0.000000    0.000000    0.000000    
68.050591    91.980042    -53.293800    -3.809748    4.498705    -169.034668    -1.326102    -4.373417    -0.322262    -3.344391    4.620311    -0.136679    7.782962    27.175079    3.738224    -9.048578    -1.703867    3.298538    9.219267    8.181481    -6.284739    -57.409828    64.421906    -23.007429    2.379764    -18.767467    -23.574942    -5.022867    -18.508324    5.080799    -4.117136    8.363416    -1.394054    66.231659    53.302982    15.453778    2.060045    -17.174366    26.503904    5.782867    -17.799839    -3.368676    -7.229429    4.716403    -7.414238    1.027290    23.383583    -5.217671    0.988395    -13.165469    -3.752496    0.000000    0.000000    0.000000    -8.597903    -21.216089    2.258226    0.315933    21.374338    2.923749    12.757195    7.912642    5.724448    0.000000    0.000000    0.000000    
68.186935    91.986908    -53.825462    -3.789997    4.460763    -168.605576    -1.281032    -4.485113    -0.310008    -3.354807    4.626738    -0.124480    7.589168    26.982718    3.648143    -8.753563    -1.417077    3.237123    9.193738    8.205687    -6.262395    -57.476696    64.400673    -22.961069    2.354115    -18.661423    -23.519112    -5.060280    -18.407246    5.016907    -4.115841    8.370564    -1.414652    66.185966    53.319885    15.514085    2.076535    -17.051620    26.301878    5.791731    -17.674671    -3.303749    -7.025008    4.725757    -7.446554    1.114878    23.804295    -5.575009    0.933623    -13.022782    -3.805109    0.000000    0.000000    0.000000    -8.446521    -20.981905    2.275442    0.185524    21.394560    2.994545    12.618419    7.657754    5.912990    0.000000    0.000000    0.000000    
68.327042    91.996155    -54.368858    -3.761472    4.420665    -168.175522    -1.227142    -4.603060    -0.292833    -3.364645    4.629196    -0.107544    7.377694    26.766090    3.558062    -8.435408    -1.089178    3.177973    9.168229    8.231322    -6.237486    -57.566151    64.371788    -22.894459    2.323293    -18.553255    -23.458988    -5.097002    -18.304960    4.951218    -4.115499    8.374443    -1.435169    66.138588    53.340870    15.573979    2.087253    -16.916368    26.089579    5.802653    -17.535501    -3.238519    -6.811652    4.719316    -7.474144    1.213044    24.248146    -5.934919    0.881460    -12.857194    -3.863814    0.000000    0.000000    0.000000    -8.279850    -20.733791    2.275003    0.060097    21.431274    3.023202    12.456930    7.353939    6.094291    0.000000    0.000000    0.000000    
68.465408    92.007622    -54.902596    -3.724396    4.380458    -167.762375    -1.165861    -4.721982    -0.271025    -3.372922    4.627524    -0.086645    7.157812    26.535160    3.471814    -8.107977    -0.735329    3.123306    9.143995    8.257343    -6.211092    -57.674377    64.336578    -22.811069    2.288488    -18.447985    -23.396540    -5.130838    -18.206305    4.887443    -4.115868    8.374356    -1.454120    66.091019    53.364769    15.630432    2.090934    -16.773605    25.875792    5.815609    -17.387430    -3.176069    -6.597395    4.695683    -7.495327    1.317905    24.700254    -6.281496    0.833881    -12.674064    -3.927412    0.000000    0.000000    0.000000    -8.104343    -20.480881    2.257665    -0.055263    21.476803    3.011716    12.286469    7.019359    6.261127    0.000000    0.000000    0.000000    
68.610184    92.022194    -55.457825    -3.675872    4.338107    -167.342728    -1.093184    -4.848315    -0.243128    -3.379458    4.621717    -0.060508    6.917435    26.278591    3.384399    -7.753347    -0.338618    3.069531    9.120127    8.285196    -6.181768    -57.806545    64.293556    -22.707834    2.247970    -18.340097    -23.327600    -5.163409    -18.106140    4.822656    -4.116825    8.370081    -1.472367    66.038521    53.394932    15.687490    2.086948    -16.616575    25.649632    5.831863    -17.223307    -3.114273    -6.369531    4.651473    -7.510728    1.435825    25.189716    -6.633319    0.787985    -12.460715    -4.000699    0.000000    0.000000    0.000000    -7.909739    -20.209873    2.216352    -0.170054    21.530487    2.972718    12.103759    6.641597    6.422514    0.000000    0.000000    0.000000    
68.749527    92.038902    -55.988956    -3.619012    4.297372    -166.951828    -1.014361    -4.971139    -0.211321    -3.383131    4.612180    -0.031161    6.677520    26.019503    3.303128    -7.402210    0.064930    3.020879    9.098592    8.312087    -6.152286    -57.952824    64.246078    -22.592541    2.205085    -18.238914    -23.257647    -5.191337    -18.013136    4.763504    -4.117766    8.361483    -1.487592    65.985130    53.425770    15.739877    2.075952    -16.456795    25.429228    5.850492    -17.055347    -3.058154    -6.146543    4.587722    -7.518500    1.556946    25.680059    -6.959052    0.747438    -12.233171    -4.079557    0.000000    0.000000    0.000000    -7.712248    -19.945169    2.140291    -0.280132    21.587448    2.932810    11.929428    6.256065    6.562307    0.000000    0.000000    0.000000    
68.895569    92.059258    -56.542278    -3.548931    4.255167    -166.555435    -0.922970    -5.100422    -0.173093    -3.383481    4.598451    0.003692    6.419073    25.738056    3.220702    -7.026554    0.505782    2.972348    9.078153    8.340760    -6.120174    -58.122425    64.191124    -22.459496    2.156728    -18.136099    -23.180851    -5.216875    -17.919619    4.706020    -4.118964    8.348177    -1.500996    65.923592    53.462395    15.793826    2.056673    -16.283289    25.197599    5.873600    -16.871994    -3.004232    -5.909152    4.497652    -7.519637    1.691252    26.216230    -7.285269    0.708573    -11.970212    -4.171572    0.000000    0.000000    0.000000    -7.495683    -19.666790    2.010051    -0.400720    21.652924    2.913524    11.752705    5.836145    6.690966    0.000000    0.000000    0.000000    
